<svg xmlns="http://www.w3.org/2000/svg" width="16" height="16" viewBox="0 0 16 16" fill="none">
    <g clip-path="url(#clip0_24297_5791)">
        <path d="M8.00016 1.33331C4.32016 1.33331 1.3335 4.31998 1.3335 7.99998C1.3335 11.68 4.32016 14.6666 8.00016 14.6666C11.6802 14.6666 14.6668 11.68 14.6668 7.99998C14.6668 4.31998 11.6802 1.33331 8.00016 1.33331ZM8.00016 3.33331C9.10683 3.33331 10.0002 4.22665 10.0002 5.33331C10.0002 6.43998 9.10683 7.33331 8.00016 7.33331C6.8935 7.33331 6.00016 6.43998 6.00016 5.33331C6.00016 4.22665 6.8935 3.33331 8.00016 3.33331ZM8.00016 12.8C6.3335 12.8 4.86016 11.9466 4.00016 10.6533C4.02016 9.32665 6.66683 8.59998 8.00016 8.59998C9.32683 8.59998 11.9802 9.32665 12.0002 10.6533C11.1402 11.9466 9.66683 12.8 8.00016 12.8Z" fill="#C2C2C2"/>
    </g>
    <defs>
        <clipPath id="clip0_24297_5791">
            <rect width="16" height="16" fill="white"/>
        </clipPath>
    </defs>
</svg>